<svg width="24" height="24" viewBox="0 0 24 24" fill="none" xmlns="http://www.w3.org/2000/svg">
<g clip-path="url(#clip0_1_360)">
<path fill-rule="evenodd" clip-rule="evenodd" d="M0 12C0 5.37259 5.37259 0 12 0C18.6275 0 24 5.37259 24 12C24 18.6275 18.6275 24 12 24C5.37259 24 0 18.6275 0 12ZM11.9385 12.4923C14.2156 12.4923 16.0616 10.6463 16.0616 8.36923C16.0616 6.09212 14.2156 4.24615 11.9385 4.24615C9.66139 4.24615 7.81543 6.09212 7.81543 8.36923C7.81543 10.6463 9.66139 12.4923 11.9385 12.4923ZM18.3216 17.1837C18.4061 17.1029 18.4245 16.9738 18.3644 16.873C17.1617 14.8557 14.7354 13.4769 11.9382 13.4769C9.14079 13.4769 6.71445 14.8558 5.51181 16.8731C5.45172 16.9739 5.47007 17.1029 5.55457 17.1838C7.21987 18.7771 9.46632 19.7539 11.9381 19.7539C14.4099 19.7539 16.6563 18.777 18.3216 17.1837Z" fill="#BABABA"/>
</g>
<defs>
<clipPath id="clip0_1_360">
<rect width="24" height="24" fill="white"/>
</clipPath>
</defs>
</svg>
